<?xml version="1.0" encoding="utf-8"?>
<!-- Generator: Adobe Illustrator 27.2.0, SVG Export Plug-In . SVG Version: 6.00 Build 0)  -->
<svg version="1.1" id="Layer_1" xmlns="http://www.w3.org/2000/svg" xmlns:xlink="http://www.w3.org/1999/xlink" x="0px" y="0px"
	 viewBox="0 0 1080 335.71" style="enable-background:new 0 0 1080 335.71;" xml:space="preserve">
<style type="text/css">
	.st0{fill:#F5EED7;}
	.st1{fill:#E95224;}
</style>
<g>
	<g>
		<g>
			<ellipse class="st0" cx="63.23" cy="173.66" rx="44.89" ry="47.64"/>
			<path d="M63.23,129.77c22.72,0,41.14,19.65,41.14,43.89c0,24.24-18.42,43.89-41.14,43.89s-41.14-19.65-41.14-43.89
				C22.09,149.42,40.5,129.77,63.23,129.77 M63.23,122.27c-26.82,0-48.65,23.06-48.65,51.4s21.82,51.4,48.65,51.4
				s48.65-23.06,48.65-51.4S90.05,122.27,63.23,122.27L63.23,122.27z"/>
		</g>
		<g>
			<ellipse class="st0" cx="153.32" cy="170.69" rx="44.89" ry="47.64"/>
			<path d="M153.32,126.8c22.72,0,41.14,19.65,41.14,43.89c0,24.24-18.42,43.89-41.14,43.89s-41.14-19.65-41.14-43.89
				C112.18,146.45,130.6,126.8,153.32,126.8 M153.32,119.29c-26.82,0-48.65,23.06-48.65,51.4s21.82,51.4,48.65,51.4
				s48.65-23.06,48.65-51.4S180.14,119.29,153.32,119.29L153.32,119.29z"/>
		</g>
		<g>
			<path d="M74.65,166.59c-5.62,0-9.3-5.52-9.61-10.87c-0.16-2.8,0.65-5.41,2.29-7.36c1.68-1.99,4.03-3.13,6.82-3.3
				c0.23-0.01,0.46-0.02,0.69-0.02c5.22,0,8.8,3.63,9.13,9.24c0.33,5.67-3.13,11.96-8.81,12.29
				C74.99,166.59,74.82,166.59,74.65,166.59z"/>
			<path d="M74.84,147.07c4.93,0,6.9,3.79,7.11,7.34c0.27,4.69-2.44,9.89-6.92,10.16c-0.13,0.01-0.26,0.01-0.38,0.01
				c-4.36,0-7.34-4.65-7.59-8.96c-0.28-4.76,2.69-8.26,7.21-8.53C74.46,147.07,74.65,147.07,74.84,147.07 M74.84,143.03
				c-0.27,0-0.54,0.01-0.81,0.02c-6.92,0.4-11.4,6.03-11.01,12.8c0.38,6.56,5.03,12.77,11.62,12.77c0.2,0,0.41-0.01,0.62-0.02
				c6.92-0.4,11.11-7.66,10.72-14.43C85.61,147.68,81.31,143.03,74.84,143.03L74.84,143.03z"/>
		</g>
		<g>
			<path d="M167.04,161.53c-5.74,0-12.41-4.46-12.41-10.21c0-6.03,3.29-9.63,8.79-9.63c5.81,0,12.84,4.54,12.84,10.17
				C176.26,157.73,172.64,161.53,167.04,161.53z"/>
			<path d="M163.42,143.71c2.47,0,5.36,1.02,7.52,2.67c1.23,0.94,3.29,2.89,3.29,5.48c0,4.79-2.69,7.65-7.2,7.65
				c-4.68,0-10.39-3.78-10.39-8.19C156.65,148.48,157.53,143.71,163.42,143.71 M163.42,139.66c-6.77,0-10.82,4.72-10.82,11.66
				s7.66,12.23,14.43,12.23s11.24-4.76,11.24-11.7S170.19,139.66,163.42,139.66L163.42,139.66z"/>
		</g>
		<path class="st0" d="M80.49,152.99c0,2.43-1.28,4.65-3.36,4.65s-4.31-1.49-4.31-3.92c0-2.43,2.13-4.39,4.22-4.39
			S80.49,150.56,80.49,152.99z"/>
		<path class="st0" d="M172.37,150c0,2.43-2.06,3.77-4.14,3.77c-2.08,0-3.96-1.74-3.96-4.16c0-2.43,2.26-4,4.34-4
			C170.68,145.61,172.37,147.58,172.37,150z"/>
		<g>
			<g>
				<path class="st1" d="M107.64,157.55c-1.53,0-2.91-0.93-3.48-2.36c-7.01-17.46-23.09-28.74-40.97-28.74
					c-8.65,0-17.05,2.64-24.27,7.64c-0.63,0.44-1.38,0.67-2.14,0.67c-0.23,0-0.47-0.02-0.7-0.07c-0.99-0.19-1.86-0.76-2.42-1.6
					l-16.32-24.38c-0.93-1.4-0.83-3.24,0.26-4.52c0.73-0.86,1.78-1.32,2.86-1.32c0.53,0,1.06,0.11,1.56,0.34
					c0.22,0.1,23.26,10.34,64.42,10.34c0,0,0,0,0.01,0c7.22,0,14.67-0.32,22.14-0.94c55.36-4.61,86.4-21.72,86.71-21.89
					c0.58-0.32,1.21-0.48,1.83-0.48c0.98,0,1.95,0.39,2.68,1.12c1.19,1.21,1.42,3.06,0.56,4.52l-19.21,32.9
					c-0.51,0.88-1.36,1.51-2.35,1.75c-0.29,0.07-0.59,0.11-0.89,0.11c-0.7,0-1.4-0.2-2-0.58c-6.85-4.33-14.71-6.62-22.73-6.62
					c-18.85,0-35.72,12.67-41.99,31.53c-0.5,1.5-1.87,2.52-3.45,2.57C107.71,157.55,107.68,157.55,107.64,157.55z"/>
				<path d="M197.13,93.99l-19.21,32.9c-7.23-4.57-15.69-7.2-24.73-7.2c-21.05,0-38.95,14.24-45.55,34.1
					c-7.34-18.28-24.48-31.1-44.46-31.1c-9.75,0-18.82,3.06-26.41,8.3l-16.32-24.38c0,0,23.35,10.68,65.99,10.68
					c6.97,0,14.46-0.29,22.45-0.95C165.71,111.62,197.13,93.99,197.13,93.99 M197.13,86.49c-1.25,0-2.51,0.31-3.66,0.95
					c-0.15,0.08-7.82,4.29-22.03,9.01c-13.17,4.37-34.82,10.06-63.17,12.43c-7.37,0.61-14.71,0.92-21.83,0.92
					c-40.19,0-62.66-9.91-62.89-10.01c-0.99-0.45-2.05-0.66-3.09-0.66c-2.16,0-4.28,0.93-5.74,2.66c-2.16,2.56-2.38,6.24-0.52,9.02
					l16.32,24.38c1.12,1.67,2.86,2.82,4.84,3.2c0.47,0.09,0.94,0.13,1.4,0.13c1.52,0,3.01-0.46,4.27-1.33
					c6.59-4.56,14.25-6.97,22.14-6.97c16.34,0,31.05,10.36,37.49,26.39c1.14,2.85,3.91,4.71,6.97,4.71c0.08,0,0.15,0,0.23,0
					c3.15-0.1,5.9-2.15,6.9-5.14c5.76-17.32,21.2-28.96,38.43-28.96c7.3,0,14.47,2.09,20.72,6.04c1.21,0.76,2.6,1.16,4.01,1.16
					c0.6,0,1.19-0.07,1.78-0.21c1.98-0.48,3.68-1.75,4.7-3.51l19.21-32.9c1.71-2.93,1.25-6.63-1.13-9.05
					C201.03,87.26,199.09,86.49,197.13,86.49L197.13,86.49z M197.13,101.5L197.13,101.5L197.13,101.5L197.13,101.5z"/>
			</g>
			<g>
				<path d="M110.89,242.87c-0.38,0-0.75-0.19-0.96-0.51l-18.41-27.51c-0.33-0.5-0.23-1.17,0.23-1.54
					c7.35-5.93,12.84-13.92,15.89-23.1c0.15-0.46,0.58-0.78,1.06-0.79c0.01,0,0.02,0,0.04,0c0.47,0,0.9,0.29,1.07,0.72
					c3.74,9.32,10,17.13,18.09,22.58c0.5,0.34,0.66,1.01,0.35,1.54l-16.36,28.03c-0.2,0.34-0.56,0.56-0.96,0.57
					C110.91,242.87,110.9,242.87,110.89,242.87z"/>
				<path d="M108.74,190.58c3.83,9.54,10.33,17.59,18.52,23.11l-16.36,28.03l-18.41-27.51C99.88,208.23,105.59,200.05,108.74,190.58
					 M108.74,188.27c-0.02,0-0.05,0-0.07,0c-0.97,0.03-1.82,0.66-2.12,1.58c-2.98,8.97-8.35,16.77-15.52,22.56
					c-0.93,0.75-1.13,2.09-0.47,3.08L108.97,243c0.43,0.64,1.15,1.03,1.92,1.03c0.02,0,0.05,0,0.07,0c0.8-0.02,1.52-0.46,1.92-1.14
					l16.36-28.03c0.61-1.05,0.31-2.4-0.7-3.08c-7.9-5.33-14.01-12.96-17.66-22.06C110.53,188.84,109.68,188.27,108.74,188.27
					L108.74,188.27z"/>
			</g>
		</g>
	</g>
	<g>
		<path d="M290.25,118.18l19.57-0.65l-0.22,82.57l-17.52-0.21v-0.21l-0.11,0.21l-35.8-46.56l1.18,46.45l-20,0.65l-1.07-83.11
			l18.92,0.86l36.13,47.09L290.25,118.18z"/>
		<path d="M347.34,181.94l36.45-0.43v18.38h-54.62l-2.69-81.71l55.05-1.83l0.97,17.96l-37.2,0.86l0.65,14.84l30.86-1.18l0.97,16.24
			l-31.07,1.5L347.34,181.94z"/>
		<path d="M497.11,116.89l20.54,9.25l-26.77,75.05h-18.38l-15.16-49.14l-14.73,47.63l-20.11-0.22L399.7,124.2l19.78-6.02L434,170.65
			l15.27-51.39h16.99l14.62,53.54L497.11,116.89z"/>
		<path d="M547.06,197c-5.91-2.44-10.91-5.81-15-10.11l9.89-12.15c7.45,6.24,15.16,9.35,23.12,9.35c4.09,0,7.33-0.88,9.73-2.63
			c2.4-1.76,3.6-4.03,3.6-6.83c0-2.72-1.47-4.71-4.41-5.97c-2.94-1.25-7.17-2.02-12.69-2.31c-8.39-0.65-14.8-2.85-19.25-6.61
			c-4.45-3.76-6.67-9.12-6.67-16.07c0-5.09,1.22-9.62,3.66-13.6c2.44-3.98,5.9-7.1,10.38-9.36c4.48-2.26,9.69-3.39,15.64-3.39
			c5.95,0,11.76,1.13,17.42,3.39c5.66,2.26,10.64,5.54,14.94,9.84l-9.46,11.93c-3.87-3.01-7.47-5.18-10.8-6.5
			c-3.33-1.33-7.19-1.99-11.56-1.99c-4.16,0-7.31,0.73-9.46,2.2c-2.15,1.47-3.23,3.53-3.23,6.18c0,2.51,1.09,4.39,3.28,5.64
			c2.19,1.26,5.72,1.92,10.59,1.99c7.96,0.14,14.8,1.92,20.54,5.32c5.73,3.41,8.6,9.12,8.6,17.15c0,5.52-1.33,10.41-3.98,14.68
			c-2.65,4.27-6.33,7.58-11.02,9.95c-4.7,2.37-9.98,3.55-15.86,3.55C558.97,200.65,552.97,199.43,547.06,197z"/>
		<path class="st1" d="M658.69,187.72l-1.51-14.86l-18.12-4.42l-8.29,13.46l-12.05-4.16l32.76-47.94l11.87,2.37l7.86,56.01
			L658.69,187.72z M645.76,157.52l10.21,2.72l-1.63-16.56L645.76,157.52z"/>
		<path d="M753.87,200.54l-0.21-33.65l-26.56-1.08v34.08h-18.06l0.11-81.71l18.06,0.21v29.35l26.34,0.86l-0.11-30l18.06-0.54
			l0.43,82.47H753.87z"/>
		<path d="M810.69,195.65c-6.63-3.98-11.93-9.26-15.91-15.86c-3.98-6.59-5.97-13.58-5.97-20.97c0-7.45,1.99-14.41,5.97-20.86
			c3.98-6.45,9.3-11.59,15.97-15.43c6.67-3.83,13.87-5.75,21.61-5.75c7.6,0,14.66,1.9,21.18,5.7c6.52,3.8,11.68,8.92,15.48,15.38
			c3.8,6.45,5.7,13.37,5.7,20.75c0,7.6-1.97,14.7-5.91,21.29s-9.19,11.86-15.75,15.81c-6.56,3.94-13.6,5.91-21.13,5.91
			S817.32,199.63,810.69,195.65z M843.92,180.22c3.83-2.22,6.92-5.25,9.25-9.09c2.33-3.83,3.49-8.01,3.49-12.53
			c0-4.37-1.09-8.39-3.28-12.04c-2.19-3.66-5.18-6.54-8.98-8.66c-3.8-2.11-7.96-3.17-12.47-3.17c-4.52,0-8.69,1.09-12.53,3.28
			c-3.84,2.19-6.86,5.12-9.09,8.82c-2.22,3.69-3.33,7.72-3.33,12.1s1.13,8.44,3.39,12.2c2.26,3.76,5.27,6.77,9.03,9.03
			c3.76,2.26,7.83,3.39,12.2,3.39C835.98,183.56,840.08,182.45,843.92,180.22z"/>
		<path d="M914.88,195.65c-6.63-3.98-11.93-9.26-15.91-15.86c-3.98-6.59-5.97-13.58-5.97-20.97c0-7.45,1.99-14.41,5.97-20.86
			c3.98-6.45,9.3-11.59,15.97-15.43c6.67-3.83,13.87-5.75,21.61-5.75c7.6,0,14.66,1.9,21.18,5.7c6.52,3.8,11.68,8.92,15.48,15.38
			c3.8,6.45,5.7,13.37,5.7,20.75c0,7.6-1.97,14.7-5.91,21.29s-9.19,11.86-15.75,15.81c-6.56,3.94-13.6,5.91-21.13,5.91
			S921.51,199.63,914.88,195.65z M948.1,180.22c3.83-2.22,6.92-5.25,9.25-9.09c2.33-3.83,3.49-8.01,3.49-12.53
			c0-4.37-1.09-8.39-3.28-12.04c-2.19-3.66-5.18-6.54-8.98-8.66c-3.8-2.11-7.96-3.17-12.47-3.17c-4.52,0-8.69,1.09-12.53,3.28
			c-3.84,2.19-6.86,5.12-9.09,8.82c-2.22,3.69-3.33,7.72-3.33,12.1s1.13,8.44,3.39,12.2c2.26,3.76,5.27,6.77,9.03,9.03
			c3.76,2.26,7.83,3.39,12.2,3.39C940.16,183.56,944.27,182.45,948.1,180.22z"/>
		<path d="M1059.54,134.42l-25.91,0.43v64.73l-17.2,0.97l-0.11-65.37l-24.41,0.43l-1.51-17.42l67.41-1.18L1059.54,134.42z"/>
	</g>
</g>
</svg>
